<svg preserveAspectRatio="none" width="281" height="307" viewBox="0 0 281 307" fill="none" xmlns="http://www.w3.org/2000/svg">
<path opacity="0.3" d="M79.9978 291.489C14.5669 319.434 37.0859 334.879 33.134 338.181C28.1941 342.308 30.1539 350.517 19.755 365.371C11.4359 377.254 54.481 369.013 56.0263 399.216L172.456 524.125L169.693 556.67C169.685 556.738 169.679 556.805 169.676 556.869L169.693 556.67C171.538 542.168 311.732 425.058 411.364 382.639C506.249 342.241 582.624 283.283 628.987 212.547L485.804 89.3944L443.024 87.1114C407.331 112.842 379.782 144.581 340.674 172.774C238.09 246.725 146.625 263.034 79.9978 291.489Z" fill="#6FCF97"/>
</svg>
