<svg preserveAspectRatio="none" width="375" height="282" viewBox="0 0 375 282" fill="none" xmlns="http://www.w3.org/2000/svg">
<path opacity="0.3" d="M-13 5.01799C-82.4183 -10.5762 -73.1833 15.1218 -78.3199 15.4891C-84.7405 15.9482 -87.9509 23.753 -105.073 29.7214C-118.77 34.4961 -79.0332 52.9829 -95.4416 78.387L-74.0394 247.798L-95.3381 272.613C-95.3751 272.653 -95.4096 272.693 -95.4416 272.734L-95.3381 272.613C-85.6733 262.293 95.0227 297.664 200.5 272.734C306 247.798 378.5 220.5 452.5 233L434.368 78.387L442 61C398 61 452.5 29.7214 299 61C145.5 92.2786 57.6872 20.8973 -13 5.01799Z" fill="#6FCF97"/>
</svg>
