<svg preserveAspectRatio="none" width="375" height="365" viewBox="0 0 375 365" fill="none" xmlns="http://www.w3.org/2000/svg">
<path opacity="0.3" d="M-45.2693 37.8705C-28.9075 41.468 29.7843 49.691 72.4306 49.691C93.5867 49.691 136.965 47.8742 185.38 37.8705C234.561 27.7086 305.216 5.21648 335.803 1.38082C405.472 -7.35602 414.655 28.2085 419.722 28.6196C426.056 29.1336 429.223 37.8704 446.112 44.5516C459.624 49.8966 420.426 70.5912 436.612 99.0291L415.5 288.672L436.326 316.208C436.431 316.336 436.526 316.462 436.612 316.586L436.326 316.208C426.277 303.969 327.357 274.386 226.021 310.933C112.016 352.048 106.965 352.882 95.1258 356.673C16.4834 381.856 -110.992 340.647 -127.606 353.589C-146.079 367.98 -51.427 150.252 -55.8254 73.8461L-45.2693 37.8705Z" fill="#6FCF97"/>
</svg>
