<svg preserveAspectRatio="none" width="375" height="383" viewBox="0 0 375 383" fill="none" xmlns="http://www.w3.org/2000/svg">
<mask id="path-1-inside-1" fill="white">
<path fill-rule="evenodd" clip-rule="evenodd" d="M375 22.5203V383H0V22.5203C60.291 7.78283 123.048 0 187.5 0C251.952 0 314.709 7.78283 375 22.5203Z"/>
</mask>
<path fill-rule="evenodd" clip-rule="evenodd" d="M375 22.5203V383H0V22.5203C60.291 7.78283 123.048 0 187.5 0C251.952 0 314.709 7.78283 375 22.5203Z" fill="#3A3F51"/>
<path d="M375 22.5203H376V21.7353L375.237 21.5489L375 22.5203ZM375 383V384H376V383H375ZM0 383H-1V384H0V383ZM0 22.5203L-0.237448 21.5489L-1 21.7353V22.5203H0ZM374 22.5203V383H376V22.5203H374ZM375 382H0V384H375V382ZM1 383V22.5203H-1V383H1ZM0.237448 23.4917C60.4515 8.77303 123.129 1 187.5 1V-1C122.967 -1 60.1304 6.79263 -0.237448 21.5489L0.237448 23.4917ZM187.5 1C251.871 1 314.548 8.77303 374.763 23.4917L375.237 21.5489C314.87 6.79263 252.033 -1 187.5 -1V1Z" fill="#3A3F51" mask="url(#path-1-inside-1)"/>
</svg>
